<?xml version="1.0" standalone="no"?>
<!DOCTYPE svg PUBLIC "-//W3C//DTD SVG 20010904//EN"
 "http://www.w3.org/TR/2001/REC-SVG-20010904/DTD/svg10.dtd">
<svg version="1.0" xmlns="http://www.w3.org/2000/svg"
 width="320.000000pt" height="320.000000pt" viewBox="0 0 320.000000 320.000000"
 preserveAspectRatio="xMidYMid meet">
<metadata>
Created by potrace 1.11, written by Peter Selinger 2001-2013
</metadata>
<g transform="translate(0.000000,320.000000) scale(0.100000,-0.100000)"
fill="#000000" stroke="none">
<path d="M0 1600 l0 -1600 1600 0 1600 0 0 1600 0 1600 -1600 0 -1600 0 0
-1600z m3000 900 l0 -500 -200 0 -200 0 0 100 0 100 100 0 100 0 0 100 0 100
-400 0 -400 0 0 -100 0 -100 200 0 200 0 0 -100 0 -100 -300 0 -300 0 0 500 0
500 600 0 600 0 0 -500z m-2400 -400 l0 -100 -100 0 -100 0 0 100 0 100 100 0
100 0 0 -100z m600 0 l0 -100 -100 0 -100 0 0 100 0 100 100 0 100 0 0 -100z
m200 -400 l0 -100 100 0 100 0 0 -100 0 -100 200 0 200 0 0 100 0 100 100 0
100 0 0 100 0 100 200 0 200 0 0 -300 0 -300 -100 0 -100 0 0 -100 0 -100
-100 0 -100 0 0 -100 0 -100 -100 0 -100 0 0 -100 0 -100 -800 0 -800 0 0 300
0 300 -100 0 -100 0 0 300 0 300 600 0 600 0 0 -100z"/>
<path d="M2000 2700 l0 -100 100 0 100 0 0 100 0 100 -100 0 -100 0 0 -100z"/>
<path d="M2600 2700 l0 -100 100 0 100 0 0 100 0 100 -100 0 -100 0 0 -100z"/>
</g>
</svg>
